<?xml version="1.0" encoding="UTF-8"?>
<svg id="Layer_2" data-name="Layer 2" xmlns="http://www.w3.org/2000/svg" viewBox="0 0 1621.68 1176.02">
  <defs>
    <style>
      .cls-1 {
        stroke: #9fffff;
        stroke-width: 3px;
      }

      .cls-1, .cls-2 {
        fill: none;
        stroke-miterlimit: 10;
      }

      .cls-2 {
        stroke: #ff9f9f;
        stroke-linecap: round;
        stroke-width: 6px;
      }

      .cls-3 {
        fill: #9fffff;
      }
    </style>
  </defs>
  <g id="Layer_4" data-name="Layer 4">
    <path class="cls-2" d="m874,781.98c-41.28-57.83,3.58-130.45,56.61-151.2,48.46-15.93,74.13-5.06,106-48m-124.61-164.81c-75.71,39.83-53.95,106.2-45.39,168.81-.35,44.57-15.54,48.05,19,77m-14-380c-27.69,39.42-33.85,133.19-6,180m352.39-4.81c6.05-11.41,9.63-43.45-7-60-11.86-11.88-27.52-7.6-48-11-23.64-3.92-32.14-14.25-53-25-92.23-37.78-152.9-18.86-219,17m450.61,423.81c-82.42,9.99-114.49-7.11-128-26-12.33-17.23-9.42-36.23-31-57-4.36-4.19-27.63-26.6-56-24-29.28,2.68-30.33,28.91-61,36-34.49,7.97-47.72-21.86-82-13-24.04,6.21-18.74,21.2-55,38-24.66,11.43-36.05,8.63-54,24-6.71,5.74-20.14,17.56-21,34-.57,11.01,4.96,15.29,10,29,8.78,23.88,1.52,36.75,4,56,2,15.56,10.59,37.05,41,61m-40-53c-45.57,109.2,47.62,221.51,141,91,15.41-15,29.59-25.53,39-32m-118,90c45.73,98.22,112.15,16,188,44.99,153.02,128.67,296.68,62.3,364.39-52.8m-292.39-11.19c12.53,21.81,58.86,48.78,97,35m-225-39c6.77-2.07,17.27-4.48,30-4,23.67.9,28.8,10.83,53,13,8.14.96,65.18-5.49,76-14,11.49-7.47,12.76-15.24,20-22,8.48-7.92,24.91-14.23,60-6m-32,33c105.65,95.02,357.68,2.94,288-158m-105,47c150.2-6.49,170.17-170.56,65-258-9.56-11.63-16.2-21.84-20-28m51,55c23.65-14.96,33.29-57.09,13-82m-82-41c90.55,69.36,142-119.97,31-173m-8,23c48.26-98.21-51.6-192.74-138-172m53,48c-14.99,31.17-5.92,96.12,24.39,124.19m71,80c-21.82-20.42-44.54-44.14-71-80-50.31-68.84-54.03-117.24-96-152-63.64-56.03-169.75-35.82-207.39,29.81m39-176c-6.19-70.33-93.83-104.42-149.61-73.81m81.61,17.81c-11.16,2.44-28.9,4.81-49,0-28.68-6.86-31.98-22.77-55-29-70.17-10.08-117.02,49.34-134,89m156.39-77.81c-61.16-108.75-195.21,3.26-179.39,87.81m290.39,162.19c-32.54-88.09-52.09-71.58-117-98-56.95-35.34-58.17-55.99-147-26m321,73c94.41-99.47-40.31-159.4-128-121m332.61,118.81c-26.2-91.07-40.88-86.67-102-108-55.91-26.56-58.43-48.06-123-27m152,89c9.22,19.69,36.01,52.32,59,67m-253.61-98.81c-24.65-25.57-98.52-59.28-135-61m422.61,476.81c40.85,14.12,78.19-21.44,76-54m-117.61,43.19c67.81,30.33,99.02-76.95,12.61-113.19-37.6-22.02-56-14.85-72.61-32.81-10.93-11.81-20.65-34.05-12-80m142.61,504.81c64.13-33.71,61.18-107.99,36-169-13.76-41.6-29.56-89.36-65-99-28.5-4.02-53.45-7.19-59-42m225,242c53.69-41.08,26.28-128.72,15-145m-34,259c40.37-28.64,39.68-93.71,14-122m-366,339c-10.67-5.54-48.93-6.73-66,12m-77.61-29.81c23.53-6.54,54.95-19.3,76.61-31.19m-83-47c-11.78-10.34-44.81-17.9-61-13m-156-869c-17.06,37.02-6.78,114.91,23,148m205,629c9.52,1.06,26.22,4.75,38,10,72.12,65.47,149.11,13.02,241-8m-207,32c-2.32,23.39,20.36,47.81,40,50m175.39,76.19c149.17-121.63,106.72-434.27-135-356m-142.39-169.19c12.52,14.74,53.53,32.23,73,31m102,44c29.73-93.38,3.03-180.06-99-171-27.81,6.87-44.94,30.08-69.89,23.2-40.65-12-5.51-53.06-54.71-82.01m384.61,245.81c-25.15-23.99-106.75-50.18-161-16m-148,77c94.68-14.92,99.12-159.88,90.36-188m21.03,13c-10.27,12.33-20.52,46.02-20.25,60m182.86-78c-45.11-2.82-59.36-42.76-108-41m-314-239c52.58,107.9,142.62,21.2,212.39,99.19m32.61,72.81c14.5-25.52,7.87-74.19-12.61-94.81m-243,366c8.1,20.54,44.45,50.83,67,55m153.61,40.81c-16.18,42.57,2.68,115.34,23,139m403-267c14.3-42.21-10.43-104.3-28-122m-440,341c-85.83-43.52-126.75,16-208-6m174.39-454.81c-9.3,29.25,20.95,71,63,56"/>
  </g>
  <g id="Layer_5" data-name="Layer 5">
    <path class="cls-3" d="m717.27,670.98c-.09,19.62-29.91,19.62-30,0,.09-19.62,29.91-19.61,30,0Z"/>
    <path class="cls-3" d="m579.82,670.98c-.09,19.62-29.91,19.62-30,0,.09-19.62,29.91-19.61,30,0Z"/>
    <path class="cls-3" d="m442.36,670.98c-.09,19.62-29.91,19.62-30,0,.09-19.62,29.91-19.61,30,0Z"/>
    <path class="cls-3" d="m304.91,670.98c-.09,19.62-29.91,19.62-30,0,.09-19.62,29.91-19.61,30,0Z"/>
    <path class="cls-3" d="m717.27,238.98c-.09,19.62-29.91,19.62-30,0,.09-19.62,29.91-19.61,30,0Z"/>
    <path class="cls-3" d="m579.82,238.98c-.09,19.62-29.91,19.62-30,0,.09-19.62,29.91-19.61,30,0Z"/>
    <path class="cls-3" d="m442.36,238.98c-.09,19.62-29.91,19.62-30,0,.09-19.62,29.91-19.61,30,0Z"/>
    <path class="cls-3" d="m304.91,238.98c-.09,19.62-29.91,19.62-30,0,.09-19.62,29.91-19.61,30,0Z"/>
    <path class="cls-3" d="m717.27,1102.98c-.09,19.62-29.91,19.62-30,0,.09-19.62,29.91-19.61,30,0Z"/>
    <path class="cls-3" d="m579.82,1102.98c-.09,19.62-29.91,19.62-30,0,.09-19.62,29.91-19.61,30,0Z"/>
    <path class="cls-3" d="m442.36,1102.98c-.09,19.62-29.91,19.62-30,0,.09-19.62,29.91-19.61,30,0Z"/>
    <path class="cls-3" d="m304.91,1102.98c-.09,19.62-29.91,19.62-30,0,.09-19.62,29.91-19.61,30,0Z"/>
    <path class="cls-3" d="m167.45,670.98c-.09,19.62-29.91,19.62-30,0,.09-19.62,29.91-19.61,30,0Z"/>
    <path class="cls-3" d="m30,670.98c-.09,19.62-29.91,19.62-30,0,.09-19.62,29.91-19.61,30,0Z"/>
    <path class="cls-3" d="m786,886.98c-.09,19.62-29.91,19.62-30,0,.09-19.62,29.91-19.61,30,0Z"/>
    <path class="cls-3" d="m648.55,886.98c-.09,19.62-29.91,19.62-30,0,.09-19.62,29.91-19.61,30,0Z"/>
    <path class="cls-3" d="m511.09,886.98c-.09,19.62-29.91,19.62-30,0,.09-19.62,29.91-19.61,30,0Z"/>
    <path class="cls-3" d="m373.64,886.98c-.09,19.62-29.91,19.62-30,0,.09-19.62,29.91-19.61,30,0Z"/>
    <path class="cls-3" d="m236.18,886.98c-.09,19.62-29.91,19.62-30,0,.09-19.62,29.91-19.61,30,0Z"/>
    <path class="cls-3" d="m98.73,886.98c-.09,19.62-29.91,19.62-30,0,.09-19.62,29.91-19.61,30,0Z"/>
    <path class="cls-3" d="m786,454.98c-.09,19.62-29.91,19.62-30,0,.09-19.62,29.91-19.61,30,0Z"/>
    <path class="cls-3" d="m648.55,454.98c-.09,19.62-29.91,19.62-30,0,.09-19.62,29.91-19.61,30,0Z"/>
    <path class="cls-3" d="m786,22.98c-.09,19.62-29.91,19.62-30,0,.09-19.62,29.91-19.61,30,0Z"/>
    <path class="cls-3" d="m648.55,22.98c-.09,19.62-29.91,19.62-30,0,.09-19.62,29.91-19.61,30,0Z"/>
    <path class="cls-3" d="m511.09,454.98c-.09,19.62-29.91,19.62-30,0,.09-19.62,29.91-19.61,30,0Z"/>
    <path class="cls-3" d="m373.64,454.98c-.09,19.62-29.91,19.62-30,0,.09-19.62,29.91-19.61,30,0Z"/>
    <path class="cls-3" d="m236.18,454.98c-.09,19.62-29.91,19.62-30,0,.09-19.62,29.91-19.61,30,0Z"/>
    <path class="cls-3" d="m98.73,454.98c-.09,19.62-29.91,19.62-30,0,.09-19.62,29.91-19.61,30,0Z"/>
    <line class="cls-1" x1="564.82" y1="238.98" x2="633.55" y2="22.98"/>
    <line class="cls-1" x1="771" y1="22.98" x2="564.82" y2="238.98"/>
    <line class="cls-1" x1="358.64" y1="454.98" x2="289.91" y2="238.98"/>
    <line class="cls-1" x1="358.64" y1="886.98" x2="289.91" y2="670.98"/>
    <line class="cls-1" x1="496.09" y1="886.98" x2="564.82" y2="1102.98"/>
    <line class="cls-1" x1="771" y1="22.98" x2="427.36" y2="238.98"/>
    <polyline class="cls-1" points="289.91 238.98 633.55 22.98 427.36 238.98"/>
    <line class="cls-1" x1="771" y1="22.98" x2="289.91" y2="238.98"/>
    <line class="cls-1" x1="702.27" y1="238.98" x2="771" y2="22.98"/>
    <line class="cls-1" x1="702.27" y1="238.98" x2="633.55" y2="22.98"/>
    <polyline class="cls-1" points="427.36 238.98 83.73 454.98 289.91 238.98"/>
    <polyline class="cls-1" points="427.36 238.98 221.18 454.98 152.45 670.98"/>
    <line class="cls-1" x1="496.09" y1="454.98" x2="427.36" y2="238.98"/>
    <polyline class="cls-1" points="564.82 238.98 83.73 454.98 15 670.98"/>
    <polyline class="cls-1" points="289.91 238.98 633.55 454.98 702.27 238.98"/>
    <line class="cls-1" x1="289.91" y1="238.98" x2="771" y2="454.98"/>
    <line class="cls-1" x1="496.09" y1="454.98" x2="564.82" y2="238.98"/>
    <line class="cls-1" x1="289.91" y1="238.98" x2="496.09" y2="454.98"/>
    <line class="cls-1" x1="221.18" y1="454.98" x2="289.91" y2="238.98"/>
    <line class="cls-1" x1="564.82" y1="238.98" x2="221.18" y2="454.98"/>
    <line class="cls-1" x1="633.55" y1="454.98" x2="564.82" y2="670.98"/>
    <line class="cls-1" x1="427.36" y1="238.98" x2="633.55" y2="454.98"/>
    <line class="cls-1" x1="702.27" y1="238.98" x2="496.09" y2="454.98"/>
    <polyline class="cls-1" points="427.36 238.98 771 454.98 702.27 238.98"/>
    <line class="cls-1" x1="358.64" y1="454.98" x2="427.36" y2="238.98"/>
    <line class="cls-1" x1="564.82" y1="238.98" x2="358.64" y2="454.98"/>
    <path class="cls-1" d="m564.82,238.98c61.23,192.43,144.96,455.58,206.18,648"/>
    <path class="cls-1" d="m702.27,238.98L83.73,454.98c34.26,107.67,103.2,324.35,137.45,432"/>
    <polyline class="cls-1" points="702.27 238.98 221.18 454.98 289.91 670.98 358.64 454.98"/>
    <path class="cls-1" d="m702.27,238.98l-343.64,216,68.73,216,68.73-216c34.26,107.67,103.2,324.35,137.45,432"/>
    <path class="cls-1" d="m771,454.98c-34.26,107.67-103.2,324.35-137.45,432l68.73,216"/>
    <line class="cls-1" x1="83.73" y1="886.98" x2="427.36" y2="1102.98"/>
    <polyline class="cls-1" points="702.27 1102.98 771 886.98 289.91 1102.98 83.73 886.98"/>
    <line class="cls-1" x1="152.45" y1="670.98" x2="358.64" y2="454.98"/>
    <line class="cls-1" x1="83.73" y1="886.98" x2="152.45" y2="670.98"/>
    <polyline class="cls-1" points="15 670.98 83.73 886.98 289.91 670.98 496.09 886.98 152.45 670.98 358.64 886.98 15 670.98 633.55 886.98 564.82 1102.98 358.64 886.98 427.36 670.98 496.09 886.98"/>
    <line class="cls-1" x1="771" y1="454.98" x2="15" y2="670.98"/>
    <line class="cls-1" x1="564.82" y1="670.98" x2="771" y2="454.98"/>
    <line class="cls-1" x1="221.18" y1="454.98" x2="564.82" y2="670.98"/>
    <line class="cls-1" x1="427.36" y1="670.98" x2="221.18" y2="454.98"/>
    <line class="cls-1" x1="83.73" y1="454.98" x2="427.36" y2="670.98"/>
    <line class="cls-1" x1="289.91" y1="670.98" x2="83.73" y2="454.98"/>
    <polyline class="cls-1" points="358.64 886.98 427.36 1102.98 221.18 886.98 289.91 670.98"/>
    <polyline class="cls-1" points="289.91 1102.98 358.64 886.98 702.27 670.98 221.18 886.98 564.82 1102.98"/>
    <line class="cls-1" x1="633.55" y1="886.98" x2="289.91" y2="670.98"/>
    <line class="cls-1" x1="83.73" y1="454.98" x2="564.82" y2="670.98"/>
    <polyline class="cls-1" points="221.18 454.98 702.27 670.98 83.73 454.98"/>
    <polyline class="cls-1" points="152.45 670.98 633.55 454.98 15 670.98 221.18 454.98"/>
    <polyline class="cls-1" points="15 670.98 496.09 454.98 152.45 670.98 771 454.98"/>
    <line class="cls-1" x1="702.27" y1="670.98" x2="358.64" y2="454.98"/>
    <polyline class="cls-1" points="702.27 670.98 496.09 886.98 564.82 670.98 358.64 454.98"/>
    <line class="cls-1" x1="289.91" y1="670.98" x2="496.09" y2="454.98"/>
    <line class="cls-1" x1="427.36" y1="670.98" x2="633.55" y2="454.98"/>
    <polyline class="cls-1" points="427.36 670.98 221.18 886.98 15 670.98 358.64 454.98"/>
    <polyline class="cls-1" points="771 454.98 427.36 670.98 771 886.98 289.91 670.98 771 454.98 564.82 238.98"/>
    <line class="cls-1" x1="289.91" y1="670.98" x2="633.55" y2="454.98"/>
    <polyline class="cls-1" points="289.91 1102.98 496.09 886.98 15 670.98 771 886.98"/>
    <polyline class="cls-1" points="427.36 1102.98 771 886.98 564.82 670.98 221.18 886.98 289.91 1102.98 633.55 886.98"/>
    <polyline class="cls-1" points="771 886.98 152.45 670.98 633.55 886.98 427.36 670.98 83.73 886.98 702.27 670.98 496.09 454.98"/>
    <polyline class="cls-1" points="771 886.98 564.82 1102.98 83.73 886.98 564.82 670.98 358.64 886.98 702.27 1102.98 496.09 886.98 427.36 1102.98 633.55 886.98"/>
    <polyline class="cls-1" points="83.73 886.98 702.27 1102.98 221.18 886.98"/>
  </g>
</svg>