<?xml version="1.0" encoding="UTF-8"?>
<svg xmlns="http://www.w3.org/2000/svg" width="100pt" height="100pt" viewBox="0 0 100 100" version="1.1">
    <g id="surface1">
        <path style=" stroke:none;fill-rule:nonzero;fill:rgb(100%,100%,100%);fill-opacity:1;"
              d="M 50 1 C 22.941406 1 1 22.941406 1 50 C 1 77.058594 22.941406 99 50 99 C 77.058594 99 99 77.058594 99 50 C 99 22.941406 77.058594 1 50 1 Z M 18.21875 25.511719 L 82.089844 25.511719 C 82.519531 25.511719 82.921875 25.589844 83.308594 25.710938 L 59.539062 46.050781 L 56.390625 48.621094 L 50.160156 53.691406 L 43.941406 48.628906 L 40.78125 46.058594 L 16.988281 25.710938 C 17.378906 25.589844 17.789062 25.511719 18.21875 25.511719 Z M 14.121094 71.53125 C 13.96875 71.089844 13.871094 70.628906 13.871094 70.140625 L 13.871094 29.851562 C 13.871094 29.390625 13.960938 28.949219 14.101562 28.53125 L 37.78125 48.808594 Z M 82.089844 74.488281 L 18.21875 74.488281 C 17.808594 74.488281 17.421875 74.410156 17.050781 74.308594 L 40.941406 51.378906 L 50.160156 58.878906 L 59.390625 51.371094 L 83.269531 74.308594 C 82.890625 74.421875 82.5 74.488281 82.089844 74.488281 Z M 86.191406 71.53125 L 62.539062 48.800781 L 86.210938 28.53125 C 86.351562 28.949219 86.441406 29.390625 86.441406 29.851562 L 86.441406 70.140625 C 86.429688 70.628906 86.339844 71.089844 86.191406 71.53125 Z M 86.191406 71.53125 "/>
    </g>
</svg>
