<?xml version="1.0" encoding="UTF-8"?>
<svg xmlns="http://www.w3.org/2000/svg" width="100pt" height="100pt" viewBox="0 0 100 100" version="1.1">
    <g id="surface1">
        <path style=" stroke:none;fill-rule:nonzero;fill:rgb(100%,100%,100%);fill-opacity:1;"
              d="M 50 1 C 22.941406 1 1 22.941406 1 50 C 1 77.058594 22.941406 99 50 99 C 77.058594 99 99 77.058594 99 50 C 99 22.941406 77.058594 1 50 1 Z M 38.011719 70.308594 L 28.089844 70.308594 L 28.089844 38.378906 L 38.011719 38.378906 Z M 32.980469 34.460938 C 29.851562 34.460938 27.820312 32.238281 27.820312 29.488281 C 27.820312 26.691406 29.910156 24.53125 33.109375 24.53125 C 36.308594 24.53125 38.269531 26.679688 38.328125 29.488281 C 38.328125 32.238281 36.308594 34.460938 32.980469 34.460938 Z M 74.238281 70.308594 L 64.320312 70.308594 L 64.320312 52.609375 C 64.320312 48.488281 62.878906 45.691406 59.289062 45.691406 C 56.550781 45.691406 54.921875 47.578125 54.199219 49.410156 C 53.929688 50.058594 53.871094 50.980469 53.871094 51.890625 L 53.871094 70.300781 L 43.941406 70.300781 L 43.941406 48.558594 C 43.941406 44.570312 43.808594 41.238281 43.679688 38.371094 L 52.300781 38.371094 L 52.75 42.808594 L 52.949219 42.808594 C 54.261719 40.730469 57.460938 37.648438 62.808594 37.648438 C 69.339844 37.648438 74.230469 42.019531 74.230469 51.429688 L 74.230469 70.308594 Z M 74.238281 70.308594 "/>
    </g>
</svg>
