<?xml version="1.0" encoding="UTF-8"?>
<svg xmlns="http://www.w3.org/2000/svg" width="100pt" height="100pt" viewBox="0 0 100 100" version="1.1">
    <g id="surface1">
        <path style=" stroke:none;fill-rule:nonzero;fill:rgb(100%,100%,100%);fill-opacity:1;"
              d="M 93.195312 26.097656 C 88.730469 18.445312 82.671875 12.386719 75.019531 7.921875 C 67.367188 3.453125 59.011719 1.222656 49.949219 1.222656 C 40.886719 1.222656 32.527344 3.457031 24.875 7.921875 C 17.222656 12.386719 11.164062 18.445312 6.699219 26.097656 C 2.234375 33.75 0 42.109375 0 51.167969 C 0 62.050781 3.175781 71.839844 9.527344 80.53125 C 15.878906 89.226562 24.085938 95.242188 34.144531 98.578125 C 35.3125 98.796875 36.179688 98.644531 36.746094 98.125 C 37.308594 97.605469 37.589844 96.953125 37.589844 96.175781 C 37.589844 96.042969 37.578125 94.875 37.558594 92.664062 C 37.535156 90.449219 37.523438 88.519531 37.523438 86.875 L 36.027344 87.132812 C 35.074219 87.308594 33.871094 87.382812 32.417969 87.363281 C 30.96875 87.339844 29.460938 87.1875 27.898438 86.90625 C 26.335938 86.625 24.886719 85.976562 23.542969 84.957031 C 22.199219 83.9375 21.246094 82.605469 20.679688 80.957031 L 20.03125 79.460938 C 19.597656 78.464844 18.914062 77.359375 17.980469 76.144531 C 17.050781 74.929688 16.105469 74.105469 15.152344 73.671875 L 14.699219 73.347656 C 14.394531 73.132812 14.113281 72.871094 13.851562 72.566406 C 13.59375 72.261719 13.398438 71.960938 13.265625 71.65625 C 13.136719 71.351562 13.246094 71.101562 13.59375 70.90625 C 13.941406 70.710938 14.566406 70.617188 15.476562 70.617188 L 16.777344 70.808594 C 17.644531 70.984375 18.71875 71.503906 19.996094 72.371094 C 21.277344 73.238281 22.328125 74.363281 23.152344 75.75 C 24.148438 77.53125 25.351562 78.886719 26.761719 79.816406 C 28.171875 80.75 29.589844 81.214844 31.019531 81.214844 C 32.453125 81.214844 33.6875 81.105469 34.726562 80.890625 C 35.769531 80.675781 36.742188 80.347656 37.65625 79.914062 C 38.042969 77.007812 39.105469 74.777344 40.839844 73.214844 C 38.371094 72.957031 36.148438 72.566406 34.175781 72.042969 C 32.203125 71.523438 30.164062 70.679688 28.0625 69.507812 C 25.957031 68.335938 24.214844 66.882812 22.828125 65.148438 C 21.4375 63.414062 20.300781 61.140625 19.414062 58.320312 C 18.523438 55.503906 18.078125 52.25 18.078125 48.566406 C 18.078125 43.320312 19.792969 38.855469 23.21875 35.167969 C 21.613281 31.222656 21.765625 26.800781 23.671875 21.902344 C 24.929688 21.511719 26.792969 21.804688 29.265625 22.777344 C 31.738281 23.753906 33.546875 24.589844 34.695312 25.285156 C 35.84375 25.976562 36.765625 26.5625 37.460938 27.039062 C 41.492188 25.914062 45.65625 25.347656 49.949219 25.347656 C 54.238281 25.347656 58.402344 25.914062 62.433594 27.039062 L 64.90625 25.480469 C 66.597656 24.4375 68.59375 23.484375 70.890625 22.617188 C 73.1875 21.75 74.945312 21.511719 76.160156 21.902344 C 78.109375 26.800781 78.28125 31.222656 76.679688 35.167969 C 80.101562 38.855469 81.816406 43.320312 81.816406 48.566406 C 81.816406 52.25 81.371094 55.511719 80.484375 58.355469 C 79.59375 61.195312 78.445312 63.46875 77.039062 65.183594 C 75.628906 66.894531 73.871094 68.335938 71.769531 69.507812 C 69.667969 70.679688 67.628906 71.523438 65.65625 72.042969 C 63.683594 72.566406 61.460938 72.957031 58.988281 73.214844 C 61.242188 75.167969 62.371094 78.246094 62.371094 82.449219 L 62.371094 96.171875 C 62.371094 96.953125 62.640625 97.601562 63.183594 98.121094 C 63.726562 98.640625 64.582031 98.792969 65.753906 98.578125 C 75.8125 95.238281 84.019531 89.222656 90.371094 80.53125 C 96.71875 71.835938 99.898438 62.050781 99.898438 51.167969 C 99.894531 42.105469 97.660156 33.75 93.195312 26.097656 Z M 93.195312 26.097656 "/>
    </g>
</svg>
