<?xml version="1.0" encoding="UTF-8"?>
<svg id="Layer_1" data-name="Layer 1" xmlns="http://www.w3.org/2000/svg" viewBox="0 0 830 210">
  <defs>
    <style>
      .cls-1 {
        stroke: #fff;
        stroke-width: 14px;
      }

      .cls-1, .cls-2 {
        fill: none;
        stroke-linecap: round;
        stroke-miterlimit: 10;
      }

      .cls-3 {
        fill: #fff;
      }

      .cls-2 {
        stroke: #000;
        stroke-width: 7px;
      }
    </style>
  </defs>
  <g>
    <path class="cls-1" d="m452.48,17.18c6.68-3.78,22.39-11.43,43-10,8.59.6,31.19,2.16,45,20,15.8,20.4,13.17,53.1-3.92,69.92-13.26,13.06-32.2,13.59-47,14-15.09.42-27.32-2.55-35-5"/>
    <path class="cls-1" d="m452.48,17.18c.28,59.89.55,119.78.83,179.67"/>
    <line class="cls-1" x1="522.56" y1="109.1" x2="556.31" y2="196.85"/>
  </g>
  <g>
    <path class="cls-2" d="m453,17.18c6.68-3.78,22.39-11.43,43-10,8.59.6,31.19,2.16,45,20,15.8,20.4,13.17,53.1-3.92,69.92-13.26,13.06-32.2,13.59-47,14-15.09.42-27.32-2.55-35-5"/>
    <path class="cls-2" d="m453,17.18c.28,59.89.55,119.78.83,179.67"/>
    <line class="cls-2" x1="523.08" y1="109.1" x2="556.83" y2="196.85"/>
  </g>
  <g>
    <line class="cls-1" x1="40.57" y1="114.19" x2="108.58" y2="114.19"/>
    <g>
      <line class="cls-1" x1="74.79" y1="10.01" x2="141.79" y2="194.08"/>
      <line class="cls-3" x1="74.79" y1="10.01" x2="141.79" y2="194.08"/>
    </g>
    <g>
      <line class="cls-1" x1="74" y1="9.77" x2="7" y2="193.84"/>
      <line class="cls-3" x1="74" y1="9.77" x2="7" y2="193.84"/>
    </g>
  </g>
  <g>
    <g>
      <line class="cls-2" x1="74.54" y1="10.01" x2="141.54" y2="194.08"/>
      <line x1="74.54" y1="10.01" x2="141.54" y2="194.08"/>
    </g>
    <g>
      <line class="cls-2" x1="74.25" y1="9.77" x2="7.25" y2="193.84"/>
      <line x1="74.25" y1="9.77" x2="7.25" y2="193.84"/>
    </g>
    <line class="cls-2" x1="40.58" y1="114.05" x2="108.59" y2="114.05"/>
  </g>
  <g>
    <g>
      <path class="cls-1" d="m172.46,17.16c6.93-3.88,22.58-11.35,43-10,8.96.59,23.3,1.54,34.97,12.08,17.13,15.47,19.98,43.92,9,63-4.47,7.76-10.41,12.57-14,15-11.84,8.03-25.05,8.47-51,9-8.31.17-15.19.01-19.89-.16"/>
      <path class="cls-1" d="m172.46,17.16c.02,55.73.04,111.47.06,167.2"/>
    </g>
    <path class="cls-1" d="m223.81,104.93c2.69-.29,20.01-1.85,34,11,1.61,1.48,12.56,11.85,13.62,28.32,1.55,24.02-19.29,39.8-22.46,42.12-19.69,14.38-48.86,13.85-74.24-.83"/>
  </g>
  <g>
    <g>
      <path class="cls-2" d="m172.46,17.16c6.93-3.88,22.58-11.35,43-10,8.96.59,23.3,1.54,34.97,12.08,17.13,15.47,19.98,43.92,9,63-4.47,7.76-10.41,12.57-14,15-11.84,8.03-25.05,8.47-51,9-8.31.17-15.19.01-19.89-.16"/>
      <path class="cls-2" d="m172.46,17.16c.02,55.73.04,111.47.06,167.2"/>
    </g>
    <path class="cls-2" d="m223.81,104.93c2.69-.29,20.01-1.85,34,11,1.61,1.48,12.56,11.85,13.62,28.32,1.55,24.02-19.29,39.8-22.46,42.12-19.69,14.38-48.86,13.85-74.24-.83"/>
  </g>
  <ellipse class="cls-1" cx="356.51" cy="101.93" rx="62.58" ry="92"/>
  <ellipse class="cls-2" cx="356.51" cy="101.93" rx="62.58" ry="92"/>
  <g>
    <line class="cls-1" x1="591.06" y1="9.93" x2="591.06" y2="193.93"/>
    <path class="cls-1" d="m591.06,193.93c59.25,7.61,110-39.1,110-92S650.31,2.32,591.06,9.93"/>
  </g>
  <g>
    <line class="cls-2" x1="591.06" y1="9.93" x2="591.06" y2="193.93"/>
    <path class="cls-2" d="m591.06,193.93c59.25,7.61,110-39.1,110-92S650.31,2.32,591.06,9.93"/>
  </g>
  <g>
    <line class="cls-1" x1="726.89" y1="10.37" x2="726.89" y2="193.37"/>
    <line class="cls-1" x1="727.97" y1="101.87" x2="821.97" y2="101.87"/>
    <line class="cls-1" x1="727.97" y1="10.35" x2="821.97" y2="10.35"/>
    <line class="cls-1" x1="727.97" y1="193.5" x2="821.97" y2="193.5"/>
    <line class="cls-2" x1="727.97" y1="10.35" x2="821.97" y2="10.35"/>
    <line class="cls-2" x1="727.97" y1="101.87" x2="821.97" y2="101.87"/>
    <line class="cls-2" x1="727.97" y1="193.5" x2="821.97" y2="193.5"/>
    <line class="cls-2" x1="726.89" y1="10.37" x2="726.89" y2="193.37"/>
  </g>
</svg>