<?xml version="1.0" encoding="UTF-8"?>
<svg id="Layer_1" data-name="Layer 1" xmlns="http://www.w3.org/2000/svg" viewBox="0 0 828.97 414.28">
  <defs>
    <style>
      .cls-1 {
        stroke: #fff;
        stroke-width: 14px;
      }

      .cls-1, .cls-2 {
        fill: none;
        stroke-linecap: round;
        stroke-miterlimit: 10;
      }

      .cls-3 {
        fill: #fff;
      }

      .cls-2 {
        stroke: #000;
        stroke-width: 7px;
      }
    </style>
  </defs>
  <g>
    <path class="cls-1" d="m288.73,61.19c-13.02-30.35-37.32-51.77-62.89-52.58-41.25-1.32-71.5,51.44-71.1,93.92.39,42.83,32.1,94.54,73.17,92.69,36.5-1.65,58.41-44.62,59.8-47.43"/>
    <path class="cls-2" d="m288.73,61.19c-13.02-30.35-37.32-51.77-62.89-52.58-41.25-1.32-71.5,51.44-71.1,93.92.39,42.83,32.1,94.54,73.17,92.69,36.5-1.65,58.41-44.62,59.8-47.43"/>
  </g>
  <g>
    <line class="cls-1" x1="43.91" y1="114.11" x2="111.53" y2="114.11"/>
    <g>
      <line class="cls-1" x1="77.94" y1="10.54" x2="144.54" y2="193.54"/>
      <line class="cls-3" x1="77.94" y1="10.54" x2="144.54" y2="193.54"/>
    </g>
    <g>
      <line class="cls-1" x1="77.15" y1="10.31" x2="10.54" y2="193.31"/>
      <line class="cls-3" x1="77.15" y1="10.31" x2="10.54" y2="193.31"/>
    </g>
    <g>
      <g>
        <line class="cls-2" x1="77.69" y1="10.54" x2="144.29" y2="193.54"/>
        <line x1="77.69" y1="10.54" x2="144.29" y2="193.54"/>
      </g>
      <g>
        <line class="cls-2" x1="77.39" y1="10.31" x2="10.79" y2="193.31"/>
        <line x1="77.39" y1="10.31" x2="10.79" y2="193.31"/>
      </g>
      <line class="cls-2" x1="43.93" y1="113.97" x2="111.54" y2="113.97"/>
    </g>
  </g>
  <g>
    <line class="cls-1" x1="311.34" y1="10.43" x2="311.34" y2="193.43"/>
    <line class="cls-1" x1="408.63" y1="10.43" x2="408.63" y2="193.43"/>
    <line class="cls-1" x1="314.34" y1="101.93" x2="408.34" y2="101.93"/>
    <line class="cls-2" x1="311.34" y1="10.43" x2="311.34" y2="193.43"/>
    <line class="cls-2" x1="408.63" y1="10.43" x2="408.63" y2="193.43"/>
    <line class="cls-2" x1="314.34" y1="101.93" x2="408.34" y2="101.93"/>
  </g>
  <g>
    <line class="cls-1" x1="466.15" y1="114.19" x2="534.16" y2="114.19"/>
    <g>
      <line class="cls-1" x1="500.37" y1="10.01" x2="567.36" y2="194.08"/>
      <line class="cls-3" x1="500.37" y1="10.01" x2="567.36" y2="194.08"/>
    </g>
    <g>
      <line class="cls-1" x1="499.57" y1="9.77" x2="432.58" y2="193.84"/>
      <line class="cls-3" x1="499.57" y1="9.77" x2="432.58" y2="193.84"/>
    </g>
    <g>
      <line class="cls-2" x1="500.12" y1="10.01" x2="567.11" y2="194.08"/>
      <line x1="500.12" y1="10.01" x2="567.11" y2="194.08"/>
    </g>
    <g>
      <line class="cls-2" x1="499.82" y1="9.77" x2="432.83" y2="193.84"/>
      <line x1="499.82" y1="9.77" x2="432.83" y2="193.84"/>
    </g>
    <line class="cls-2" x1="466.16" y1="114.04" x2="534.17" y2="114.04"/>
  </g>
  <g>
    <g>
      <path class="cls-1" d="m590.54,17.18c6.68-3.78,22.39-11.43,43-10,8.59.6,31.19,2.16,45,20,15.8,20.4,13.17,53.1-3.92,69.92-13.26,13.06-32.2,13.59-47,14-15.09.42-27.32-2.55-35-5"/>
      <path class="cls-1" d="m590.54,17.18c.28,59.89.55,119.78.83,179.67"/>
      <line class="cls-1" x1="660.62" y1="109.1" x2="694.37" y2="196.85"/>
    </g>
    <g>
      <path class="cls-2" d="m591.06,17.18c6.68-3.78,22.39-11.43,43-10,8.59.6,31.19,2.16,45,20,15.8,20.4,13.17,53.1-3.92,69.92-13.26,13.06-32.2,13.59-47,14-15.09.42-27.32-2.55-35-5"/>
      <path class="cls-2" d="m591.06,17.18c.28,59.89.55,119.78.83,179.67"/>
      <line class="cls-2" x1="661.14" y1="109.1" x2="694.89" y2="196.85"/>
    </g>
  </g>
  <g>
    <line class="cls-1" x1="762.81" y1="101.58" x2="762.81" y2="193.58"/>
    <line class="cls-1" x1="704.81" y1="10.58" x2="762.81" y2="101.58"/>
    <line class="cls-1" x1="820.74" y1="10.27" x2="762.74" y2="101.27"/>
    <line class="cls-2" x1="762.81" y1="101.58" x2="762.81" y2="193.58"/>
    <line class="cls-2" x1="704.81" y1="10.58" x2="762.81" y2="101.58"/>
    <line class="cls-2" x1="820.74" y1="10.27" x2="762.74" y2="101.27"/>
  </g>
  <g>
    <g>
      <path class="cls-1" d="m452.48,227.6c6.68-3.78,22.39-11.43,43-10,8.59.6,31.19,2.16,45,20,15.8,20.4,13.17,53.1-3.92,69.92-13.26,13.06-32.2,13.59-47,14-15.09.42-27.32-2.55-35-5"/>
      <path class="cls-1" d="m452.48,227.6c.28,59.89.55,119.78.83,179.67"/>
      <line class="cls-1" x1="522.56" y1="319.53" x2="556.31" y2="407.28"/>
    </g>
    <g>
      <path class="cls-2" d="m453,227.6c6.68-3.78,22.39-11.43,43-10,8.59.6,31.19,2.16,45,20,15.8,20.4,13.17,53.1-3.92,69.92-13.26,13.06-32.2,13.59-47,14-15.09.42-27.32-2.55-35-5"/>
      <path class="cls-2" d="m453,227.6c.28,59.89.55,119.78.83,179.67"/>
      <line class="cls-2" x1="523.08" y1="319.53" x2="556.83" y2="407.28"/>
    </g>
    <g>
      <line class="cls-1" x1="40.57" y1="324.61" x2="108.58" y2="324.61"/>
      <g>
        <line class="cls-1" x1="74.79" y1="220.44" x2="141.79" y2="404.51"/>
        <line class="cls-3" x1="74.79" y1="220.44" x2="141.79" y2="404.51"/>
      </g>
      <g>
        <line class="cls-1" x1="74" y1="220.2" x2="7" y2="404.27"/>
        <line class="cls-3" x1="74" y1="220.2" x2="7" y2="404.27"/>
      </g>
    </g>
    <g>
      <g>
        <line class="cls-2" x1="74.54" y1="220.44" x2="141.54" y2="404.51"/>
        <line x1="74.54" y1="220.44" x2="141.54" y2="404.51"/>
      </g>
      <g>
        <line class="cls-2" x1="74.25" y1="220.2" x2="7.25" y2="404.27"/>
        <line x1="74.25" y1="220.2" x2="7.25" y2="404.27"/>
      </g>
      <line class="cls-2" x1="40.58" y1="324.47" x2="108.59" y2="324.47"/>
    </g>
    <g>
      <g>
        <path class="cls-1" d="m172.46,227.59c6.93-3.88,22.58-11.35,43-10,8.96.59,23.3,1.54,34.97,12.08,17.13,15.47,19.98,43.92,9,63-4.47,7.76-10.41,12.57-14,15-11.84,8.03-25.05,8.47-51,9-8.31.17-15.19.01-19.89-.16"/>
        <path class="cls-1" d="m172.46,227.59c.02,55.73.04,111.47.06,167.2"/>
      </g>
      <path class="cls-1" d="m223.81,315.35c2.69-.29,20.01-1.85,34,11,1.61,1.48,12.56,11.85,13.62,28.32,1.55,24.02-19.29,39.8-22.46,42.12-19.69,14.38-48.86,13.85-74.24-.83"/>
    </g>
    <g>
      <g>
        <path class="cls-2" d="m172.46,227.59c6.93-3.88,22.58-11.35,43-10,8.96.59,23.3,1.54,34.97,12.08,17.13,15.47,19.98,43.92,9,63-4.47,7.76-10.41,12.57-14,15-11.84,8.03-25.05,8.47-51,9-8.31.17-15.19.01-19.89-.16"/>
        <path class="cls-2" d="m172.46,227.59c.02,55.73.04,111.47.06,167.2"/>
      </g>
      <path class="cls-2" d="m223.81,315.35c2.69-.29,20.01-1.85,34,11,1.61,1.48,12.56,11.85,13.62,28.32,1.55,24.02-19.29,39.8-22.46,42.12-19.69,14.38-48.86,13.85-74.24-.83"/>
    </g>
    <ellipse class="cls-1" cx="356.51" cy="312.35" rx="62.58" ry="92"/>
    <ellipse class="cls-2" cx="356.51" cy="312.35" rx="62.58" ry="92"/>
    <g>
      <line class="cls-1" x1="591.06" y1="220.35" x2="591.06" y2="404.35"/>
      <path class="cls-1" d="m591.06,404.35c59.25,7.61,110-39.1,110-92s-50.75-99.61-110-92"/>
    </g>
    <g>
      <line class="cls-2" x1="591.06" y1="220.35" x2="591.06" y2="404.35"/>
      <path class="cls-2" d="m591.06,404.35c59.25,7.61,110-39.1,110-92s-50.75-99.61-110-92"/>
    </g>
    <g>
      <line class="cls-1" x1="726.89" y1="220.8" x2="726.89" y2="403.8"/>
      <line class="cls-1" x1="727.97" y1="312.3" x2="821.97" y2="312.3"/>
      <line class="cls-1" x1="727.97" y1="220.77" x2="821.97" y2="220.78"/>
      <line class="cls-1" x1="727.97" y1="403.93" x2="821.97" y2="403.93"/>
      <line class="cls-2" x1="727.97" y1="220.77" x2="821.97" y2="220.78"/>
      <line class="cls-2" x1="727.97" y1="312.3" x2="821.97" y2="312.3"/>
      <line class="cls-2" x1="727.97" y1="403.93" x2="821.97" y2="403.93"/>
      <line class="cls-2" x1="726.89" y1="220.8" x2="726.89" y2="403.8"/>
    </g>
  </g>
</svg>